<?xml version="1.0" encoding="UTF-8" standalone="no"?>
<!-- Created with Inkscape (http://www.inkscape.org/) -->

<svg
   width="66.345779mm"
   height="167.25394mm"
   viewBox="0 0 66.34578 167.25394"
   version="1.1"
   id="svg5"
   inkscape:version="1.1.2 (0a00cf5339, 2022-02-04, custom)"
   sodipodi:docname="queen.svg"
   xmlns:inkscape="http://www.inkscape.org/namespaces/inkscape"
   xmlns:sodipodi="http://sodipodi.sourceforge.net/DTD/sodipodi-0.dtd"
   xmlns="http://www.w3.org/2000/svg"
   xmlns:svg="http://www.w3.org/2000/svg">
  <sodipodi:namedview
     id="namedview7"
     pagecolor="#505050"
     bordercolor="#eeeeee"
     borderopacity="1"
     inkscape:pageshadow="0"
     inkscape:pageopacity="0"
     inkscape:pagecheckerboard="0"
     inkscape:document-units="mm"
     showgrid="false"
     inkscape:zoom="3.1108586"
     inkscape:cx="173.42479"
     inkscape:cy="545.02638"
     inkscape:window-width="2560"
     inkscape:window-height="1371"
     inkscape:window-x="1920"
     inkscape:window-y="32"
     inkscape:window-maximized="1"
     inkscape:current-layer="layer1"
     fit-margin-top="0.7"
     fit-margin-left="0.7"
     fit-margin-right="0.7"
     fit-margin-bottom="0" />
  <defs
     id="defs2" />
  <g
     inkscape:label="Layer 1"
     inkscape:groupmode="layer"
     id="layer1"
     transform="translate(-70.174178,-59.15912)">
    <path
       style="fill:#000000;stroke-width:0.264583"
       d="m 71.540168,225.02397 c 0.25764,-1.91921 0.75068,-2.99663 1.98309,-4.33365 0.5803,-0.62955 1.05509,-1.21254 1.05509,-1.29554 0,-0.083 -0.3955,-0.77028 -0.87889,-1.52727 -1.84505,-2.88935 -2.82528,-6.53146 -2.82528,-10.49748 0,-3.87687 0.94097,-6.46923 4.25354,-11.71846 2.62346,-4.15723 2.7983,-4.50286 2.35298,-4.6513 -0.75773,-0.25257 -1.57943,-1.45368 -1.57943,-2.3087 0,-1.13835 1.07563,-2.40665 2.33442,-2.75255 0.93584,-0.25717 1.07755,-0.46841 3.72343,-5.55062 1.51281,-2.9058 3.19483,-6.27033 3.73783,-7.47672 3.09994,-6.88724 5.34025,-14.78511 6.62635,-23.36011 0.75879,-5.05927 1.50553,-13.54179 1.23471,-14.02571 -0.18054,-0.32262 -0.96422,-0.39408 -4.32157,-0.39408 -4.35644,0 -4.96236,-0.13556 -6.11265,-1.36754 -0.32048,-0.34323 -0.77487,-1.08403 -1.00977,-1.64622 -0.84816,-2.02992 0.27512,-4.87366 2.46946,-6.2518 1.1902,-0.74749 1.36518,-0.77876 4.3851,-0.78358 l 3.14545,-0.005 -0.15233,-4.43177 c -0.12607,-3.66791 -0.28979,-5.00182 -0.94987,-7.73906 -0.97483,-4.04247 -2.04449,-7.01312 -3.71555,-10.31875 -2.26783,-4.486161 -4.19025,-7.031751 -7.45042,-9.865536 -1.03114,-0.896284 -2.16848,-2.130724 -2.52741,-2.743198 -1.31672,-2.24681 -0.68353,-4.991688 1.56922,-6.802581 0.82366,-0.662106 1.29818,-0.824347 2.66576,-0.911427 1.41228,-0.08993 1.87779,0.0025 3.08016,0.611822 4.04533,2.049924 6.97357,1.976421 10.70185,-0.268635 l 1.51754,-0.913811 1.18649,0.816327 c 1.923392,1.323327 4.239432,2.147539 6.039922,2.149436 1.6798,0.0018 4.04614,-0.876025 6.07127,-2.252138 l 0.9743,-0.662053 1.78109,1.031173 c 1.08238,0.626652 2.51374,1.183936 3.64871,1.420585 1.6443,0.342845 2.04645,0.342833 3.36306,-1.01e-4 0.82249,-0.214231 2.23037,-0.760506 3.12863,-1.213945 1.42836,-0.721033 1.8417,-0.811157 3.29562,-0.718578 2.06738,0.131641 3.31633,1.01974 4.41304,3.138006 0.59885,1.156649 0.71758,1.664818 0.6001,2.568423 -0.20401,1.569218 -0.63862,2.159254 -4.13991,5.620393 -5.05063,4.992717 -7.77963,9.947878 -9.90871,17.991668 -1.02716,3.88069 -1.45146,7.03023 -1.45249,10.78177 l -7.5e-4,2.71198 h 2.73843 c 2.60422,0 2.79054,0.0377 3.80169,0.77022 1.78029,1.28964 2.7203,3.05308 2.7203,5.10323 0,1.29903 -0.50533,2.28517 -1.71548,3.34769 l -0.94877,0.83303 h -3.94393 c -2.25981,0 -4.01159,0.10948 -4.10238,0.25638 -0.23881,0.38641 0.58696,9.081 1.3326,14.03112 1.95115,12.95312 5.11523,21.76877 12.60637,35.12344 0.53986,0.96243 0.94386,1.38906 1.31538,1.38906 0.29492,0 0.94102,0.40481 1.43579,0.89958 1.1297,1.1297 1.2212,2.38029 0.25076,3.42741 -0.35685,0.38505 -0.76083,0.70009 -0.89773,0.70009 -0.67937,0 -0.50187,0.97691 0.45189,2.48708 1.54683,2.44923 2.91174,5.27946 3.96831,8.22855 0.92075,2.56998 0.94808,2.75582 0.95311,6.48229 0.005,3.51259 -0.055,4.00187 -0.70796,5.79585 -0.39223,1.07767 -1.13536,2.64343 -1.65139,3.47947 -0.51603,0.83603 -0.93824,1.72197 -0.93824,1.96875 0,0.24678 0.46976,0.98236 1.04391,1.63463 0.77799,0.88385 1.12061,1.56815 1.34504,2.68643 0.16562,0.82527 0.36362,1.76839 0.43999,2.09581 l 0.13885,0.59531 H 103.42179 71.353688 Z M 101.27641,80.252517 c -0.523,-0.199305 -1.35644,-0.57097 -1.852092,-0.825922 -4.12643,-2.122559 -6.45866,-7.497876 -5.13953,-11.845572 0.98069,-3.232235 2.88949,-5.455575 5.910622,-6.88461 1.57472,-0.744862 2.02682,-0.836105 4.14857,-0.837279 2.19366,-0.0012 2.53757,0.07392 4.36562,0.953696 2.43897,1.173793 4.03634,2.731235 5.12625,4.998111 0.75634,1.573075 0.82688,1.94551 0.82688,4.365625 0,2.408452 -0.0733,2.800132 -0.81665,4.365626 -1.07801,2.270196 -2.85287,4.056658 -5.07701,5.110178 -1.53619,0.727656 -2.10458,0.850972 -4.16051,0.902656 -1.51527,0.03809 -2.72706,-0.07192 -3.33215,-0.302509 z"
       id="path946" />
  </g>
</svg>
